<svg width="430" height="126" viewBox="0 0 430 126" fill="none" xmlns="http://www.w3.org/2000/svg">
<path d="M57.9854 66.1055C64.8701 71.6719 70.1436 78.1904 73.8057 85.5879C77.3945 93.0586 79.2988 100.603 79.2988 108.22H64.7969C64.7969 102.067 63.0391 95.915 59.5967 89.8359C56.1543 83.7568 51.1738 78.7031 44.7285 74.5283C41.5791 72.2578 38.21 70.793 34.6943 70.0605C30.4463 69.4746 25.7588 69.3281 20.5586 69.6211C18.1416 69.6943 15.5049 69.7676 12.6484 69.7676L12.502 108.22H-2L-1.92676 20.2559C-1.92676 13.5176 -0.535156 8.53711 2.32129 5.3877C5.10449 2.16504 9.79199 0.553711 16.2373 0.553711C19.9727 0.553711 23.6348 0.553711 27.2969 0.553711C30.8857 0.480469 33.9619 0.480469 36.3789 0.480469C38.8691 0.480469 40.041 0.480469 40.041 0.480469C47.6582 0.553711 54.3232 1.87207 60.1094 4.50879C65.9688 7.14551 70.5098 11.1006 73.8789 16.3008C77.1748 21.5742 78.8594 28.0928 78.8594 35.9297C78.8594 41.2764 77.9805 45.8906 76.2959 49.7725C74.5381 53.7275 72.1211 57.0234 68.9717 59.7334C65.8955 62.3701 62.2334 64.4941 57.9854 66.1055ZM40.4072 55.2656C44.9482 54.9727 49.0498 54.2402 52.6387 53.0684C56.2275 51.8965 59.0107 49.9189 61.1348 47.2822C63.1855 44.5723 64.2842 40.8369 64.2842 35.9297C64.2842 31.2422 63.4053 27.5068 61.7939 24.5771C60.1094 21.7207 57.7656 19.5234 54.6895 18.0586C51.6133 16.5205 47.9512 15.5684 43.7764 15.0557C43.4834 15.0557 42.0918 15.0557 39.4551 15.0557C36.8916 15.0557 33.8887 15.0557 30.5195 14.9824C27.1504 14.9824 24.1475 14.9824 21.584 14.9824C19.0205 14.9824 17.7021 14.9824 17.4824 14.9824C16.1641 15.2021 15.0654 15.7881 14.1865 16.7402C13.3076 17.6924 12.8682 18.8643 12.8682 20.1826C12.8682 20.1826 12.8682 21.9404 12.8682 25.4561C12.8682 28.9717 12.8682 32.9268 12.8682 37.4678C12.8682 42.0088 12.7949 46.0371 12.7949 49.5527C12.7949 53.0684 12.7949 54.9727 12.8682 55.2656C18.3613 55.2656 23.5615 55.2656 28.542 55.2656C31.9844 55.2656 34.8408 55.2656 37.0381 55.2656C39.1621 55.2656 40.334 55.2656 40.4072 55.2656ZM158.767 93.791C158.913 93.791 159.06 93.791 159.133 93.7178V108H92.4824V21.6475C92.4824 15.7881 94.6064 10.7344 98.8545 6.55957C103.176 2.38477 108.229 0.260742 114.162 0.260742C114.162 0.260742 116.359 0.260742 120.607 0.260742C124.929 0.260742 129.836 0.260742 135.402 0.260742C140.896 0.260742 145.803 0.260742 150.051 0.260742C154.299 0.260742 156.569 0.260742 156.862 0.260742V14.6895C156.643 14.6895 154.372 14.6895 150.124 14.7627C145.949 14.7627 141.042 14.7627 135.476 14.7627C129.909 14.7627 125.002 14.7627 120.681 14.7627C116.359 14.7627 114.162 14.8359 114.162 14.8359C112.258 14.8359 110.573 15.4951 109.182 16.8135C107.863 18.1318 107.131 19.7432 107.131 21.6475V46.623H153.2V60.6855L107.131 60.7588L106.838 93.4248L158.767 93.791ZM262.771 92.8389V107.78C261.013 107.854 259.475 107.854 258.156 107.78C257.204 107.78 256.252 107.78 255.3 107.78C245.705 107.634 238.234 105.437 232.888 101.042C227.541 96.7207 223.513 91.0811 220.729 84.123C218.02 77.0918 215.676 69.6211 213.698 61.6377C212.16 55.4854 210.402 49.4062 208.352 43.4736C206.374 37.541 203.737 32.1211 200.441 27.2139C197.146 22.3066 192.824 18.2051 187.478 15.0557V92.3262L187.404 107.78H172.463L172.536 92.3262L172.609 15.0557L172.536 0.114258C172.536 0.114258 172.829 0.114258 173.415 0.114258C174.074 0.114258 174.807 0.114258 175.686 0.114258C176.564 0.114258 177.37 0.114258 178.249 0.114258C179.055 0.114258 179.787 0.114258 180.3 0.114258C186.599 0.114258 192.019 1.06641 196.56 3.04395C201.101 5.09473 204.982 7.80469 208.205 11.2471C211.428 14.6895 214.211 18.6445 216.481 23.1123C218.752 27.5801 220.729 32.3408 222.414 37.3213C224.099 42.375 225.637 47.502 227.102 52.6289C229.445 61.1982 232.082 69.0352 235.158 76.2861C238.161 83.4639 242.409 89.0303 247.829 92.8389L247.756 15.5684V0.114258H262.697V15.5684L262.771 92.8389ZM342.312 93.791C342.458 93.791 342.604 93.791 342.678 93.7178V108H276.027V21.6475C276.027 15.7881 278.151 10.7344 282.399 6.55957C286.721 2.38477 291.774 0.260742 297.707 0.260742C297.707 0.260742 299.904 0.260742 304.152 0.260742C308.474 0.260742 313.381 0.260742 318.947 0.260742C324.44 0.260742 329.348 0.260742 333.596 0.260742C337.844 0.260742 340.114 0.260742 340.407 0.260742V14.6895C340.188 14.6895 337.917 14.6895 333.669 14.7627C329.494 14.7627 324.587 14.7627 319.021 14.7627C313.454 14.7627 308.547 14.7627 304.226 14.7627C299.904 14.7627 297.707 14.8359 297.707 14.8359C295.803 14.8359 294.118 15.4951 292.727 16.8135C291.408 18.1318 290.676 19.7432 290.676 21.6475V46.623H336.745V60.6855L290.676 60.7588L290.383 93.4248L342.312 93.791ZM415.993 66.1055C422.878 71.6719 428.151 78.1904 431.813 85.5879C435.402 93.0586 437.307 100.603 437.307 108.22H422.805C422.805 102.067 421.047 95.915 417.604 89.8359C414.162 83.7568 409.182 78.7031 402.736 74.5283C399.587 72.2578 396.218 70.793 392.702 70.0605C388.454 69.4746 383.767 69.3281 378.566 69.6211C376.149 69.6943 373.513 69.7676 370.656 69.7676L370.51 108.22H356.008L356.081 20.2559C356.081 13.5176 357.473 8.53711 360.329 5.3877C363.112 2.16504 367.8 0.553711 374.245 0.553711C377.98 0.553711 381.643 0.553711 385.305 0.553711C388.894 0.480469 391.97 0.480469 394.387 0.480469C396.877 0.480469 398.049 0.480469 398.049 0.480469C405.666 0.553711 412.331 1.87207 418.117 4.50879C423.977 7.14551 428.518 11.1006 431.887 16.3008C435.183 21.5742 436.867 28.0928 436.867 35.9297C436.867 41.2764 435.988 45.8906 434.304 49.7725C432.546 53.7275 430.129 57.0234 426.979 59.7334C423.903 62.3701 420.241 64.4941 415.993 66.1055ZM398.415 55.2656C402.956 54.9727 407.058 54.2402 410.646 53.0684C414.235 51.8965 417.019 49.9189 419.143 47.2822C421.193 44.5723 422.292 40.8369 422.292 35.9297C422.292 31.2422 421.413 27.5068 419.802 24.5771C418.117 21.7207 415.773 19.5234 412.697 18.0586C409.621 16.5205 405.959 15.5684 401.784 15.0557C401.491 15.0557 400.1 15.0557 397.463 15.0557C394.899 15.0557 391.896 15.0557 388.527 14.9824C385.158 14.9824 382.155 14.9824 379.592 14.9824C377.028 14.9824 375.71 14.9824 375.49 14.9824C374.172 15.2021 373.073 15.7881 372.194 16.7402C371.315 17.6924 370.876 18.8643 370.876 20.1826C370.876 20.1826 370.876 21.9404 370.876 25.4561C370.876 28.9717 370.876 32.9268 370.876 37.4678C370.876 42.0088 370.803 46.0371 370.803 49.5527C370.803 53.0684 370.803 54.9727 370.876 55.2656C376.369 55.2656 381.569 55.2656 386.55 55.2656C389.992 55.2656 392.849 55.2656 395.046 55.2656C397.17 55.2656 398.342 55.2656 398.415 55.2656Z" fill="white"/>
<path d="M246.332 117.216C246.252 117.664 246.072 118.084 245.792 118.476C245.512 118.868 245.124 119.184 244.628 119.424C244.14 119.664 243.552 119.784 242.864 119.784H241.46L240.896 123H239.204L240.692 114.624H243.776C244.632 114.624 245.28 114.816 245.72 115.2C246.16 115.576 246.38 116.08 246.38 116.712C246.38 116.896 246.364 117.064 246.332 117.216ZM243.032 118.464C243.488 118.464 243.848 118.352 244.112 118.128C244.376 117.904 244.544 117.6 244.616 117.216C244.632 117.144 244.64 117.04 244.64 116.904C244.64 116.272 244.248 115.956 243.464 115.956H242.144L241.7 118.464H243.032ZM251.137 114.624C251.993 114.624 252.641 114.82 253.081 115.212C253.521 115.596 253.741 116.1 253.741 116.724C253.741 116.876 253.729 117.032 253.705 117.192C253.609 117.736 253.361 118.232 252.961 118.68C252.569 119.12 252.041 119.428 251.377 119.604L252.781 123H250.825L249.577 119.736H248.773L248.197 123H246.505L247.993 114.624H251.137ZM251.977 117.228C251.993 117.084 252.001 116.988 252.001 116.94C252.001 116.636 251.905 116.4 251.713 116.232C251.521 116.064 251.229 115.98 250.837 115.98H249.433L248.989 118.488H250.393C250.841 118.488 251.197 118.376 251.461 118.152C251.733 117.928 251.905 117.62 251.977 117.228ZM257.132 115.932L256.748 118.104H259.568L259.34 119.4H256.52L256.124 121.668H259.304L259.064 123H254.192L255.68 114.612H260.54L260.312 115.932H257.132ZM259.688 112.884L256.688 114.144L256.904 112.944L259.928 111.516L259.688 112.884ZM266.591 118.008L266.339 119.424H261.239L261.491 118.008H266.591ZM267.923 118.8C268.067 117.976 268.379 117.24 268.859 116.592C269.347 115.936 269.943 115.428 270.647 115.068C271.359 114.7 272.115 114.516 272.915 114.516C273.851 114.516 274.631 114.756 275.255 115.236C275.879 115.716 276.255 116.38 276.383 117.228H274.451C274.323 116.844 274.103 116.556 273.791 116.364C273.479 116.164 273.095 116.064 272.639 116.064C272.151 116.064 271.695 116.176 271.271 116.4C270.855 116.624 270.503 116.944 270.215 117.36C269.935 117.776 269.747 118.256 269.651 118.8C269.611 119.056 269.591 119.268 269.591 119.436C269.591 120.084 269.775 120.596 270.143 120.972C270.519 121.348 271.027 121.536 271.667 121.536C272.123 121.536 272.543 121.436 272.927 121.236C273.311 121.036 273.635 120.744 273.899 120.36H275.831C275.399 121.216 274.787 121.884 273.995 122.364C273.211 122.836 272.351 123.072 271.415 123.072C270.711 123.072 270.087 122.932 269.543 122.652C269.007 122.364 268.591 121.96 268.295 121.44C267.999 120.92 267.851 120.324 267.851 119.652C267.851 119.372 267.875 119.088 267.923 118.8ZM282.21 121.404H278.862L278.034 123H276.27L280.77 114.612H282.726L284.25 123H282.474L282.21 121.404ZM281.994 120.096L281.394 116.544L279.546 120.096H281.994ZM292.552 123H290.86L288.088 117.252L287.068 123H285.376L286.864 114.612H288.544L291.328 120.372L292.348 114.612H294.028L292.552 123ZM298.616 114.624C299.392 114.624 300.06 114.76 300.62 115.032C301.188 115.296 301.62 115.676 301.916 116.172C302.22 116.668 302.372 117.256 302.372 117.936C302.372 118.24 302.344 118.536 302.288 118.824C302.144 119.664 301.832 120.4 301.352 121.032C300.88 121.656 300.28 122.14 299.552 122.484C298.824 122.828 298.016 123 297.128 123H294.2L295.688 114.624H298.616ZM297.32 121.632C298.2 121.632 298.92 121.384 299.48 120.888C300.048 120.392 300.412 119.704 300.572 118.824C300.612 118.56 300.632 118.332 300.632 118.14C300.632 117.468 300.432 116.948 300.032 116.58C299.64 116.212 299.064 116.028 298.304 116.028H297.128L296.144 121.632H297.32ZM305.97 114.624L304.494 123H302.802L304.29 114.624H305.97ZM310.558 114.624C311.334 114.624 312.002 114.76 312.562 115.032C313.13 115.296 313.562 115.676 313.858 116.172C314.162 116.668 314.314 117.256 314.314 117.936C314.314 118.24 314.286 118.536 314.23 118.824C314.086 119.664 313.774 120.4 313.294 121.032C312.822 121.656 312.222 122.14 311.494 122.484C310.766 122.828 309.958 123 309.07 123H306.142L307.63 114.624H310.558ZM309.262 121.632C310.142 121.632 310.862 121.384 311.422 120.888C311.99 120.392 312.354 119.704 312.514 118.824C312.554 118.56 312.574 118.332 312.574 118.14C312.574 117.468 312.374 116.948 311.974 116.58C311.582 116.212 311.006 116.028 310.246 116.028H309.07L308.086 121.632H309.262ZM320.167 121.404H316.819L315.991 123H314.227L318.727 114.612H320.683L322.207 123H320.431L320.167 121.404ZM319.951 120.096L319.351 116.544L317.503 120.096H319.951ZM330.521 114.624L330.281 115.944H328.061L326.813 123H325.121L326.369 115.944H324.137L324.377 114.624H330.521ZM334.183 123.084C333.479 123.084 332.855 122.936 332.311 122.64C331.775 122.336 331.359 121.92 331.063 121.392C330.767 120.856 330.619 120.244 330.619 119.556C330.619 118.596 330.831 117.732 331.255 116.964C331.687 116.196 332.279 115.596 333.031 115.164C333.791 114.724 334.643 114.504 335.587 114.504C336.299 114.504 336.923 114.652 337.459 114.948C338.003 115.244 338.423 115.66 338.719 116.196C339.015 116.724 339.163 117.328 339.163 118.008C339.163 118.984 338.951 119.856 338.527 120.624C338.103 121.392 337.511 121.996 336.751 122.436C335.991 122.868 335.135 123.084 334.183 123.084ZM334.423 121.536C335.023 121.536 335.551 121.384 336.007 121.08C336.471 120.776 336.827 120.368 337.075 119.856C337.331 119.336 337.459 118.772 337.459 118.164C337.459 117.508 337.275 116.992 336.907 116.616C336.539 116.24 336.023 116.052 335.359 116.052C334.767 116.052 334.239 116.204 333.775 116.508C333.319 116.812 332.963 117.22 332.707 117.732C332.459 118.244 332.335 118.804 332.335 119.412C332.335 120.068 332.515 120.588 332.875 120.972C333.243 121.348 333.759 121.536 334.423 121.536ZM348.316 121.404H344.968L344.14 123H342.375L346.876 114.612H348.832L350.356 123H348.58L348.316 121.404ZM348.1 120.096L347.5 116.544L345.652 120.096H348.1ZM357.32 114.624L358.436 121.284L361.916 114.624H363.704L359.156 123H357.116L355.52 114.624H357.32ZM366.164 115.932L365.78 118.104H368.6L368.372 119.4H365.552L365.156 121.668H368.336L368.096 123H363.224L364.712 114.612H369.572L369.344 115.932H366.164ZM374.242 114.624C375.098 114.624 375.746 114.82 376.186 115.212C376.626 115.596 376.846 116.1 376.846 116.724C376.846 116.876 376.834 117.032 376.81 117.192C376.714 117.736 376.466 118.232 376.066 118.68C375.674 119.12 375.146 119.428 374.482 119.604L375.886 123H373.93L372.682 119.736H371.878L371.302 123H369.61L371.098 114.624H374.242ZM375.082 117.228C375.098 117.084 375.106 116.988 375.106 116.94C375.106 116.636 375.01 116.4 374.818 116.232C374.626 116.064 374.334 115.98 373.942 115.98H372.538L372.094 118.488H373.498C373.946 118.488 374.302 118.376 374.566 118.152C374.838 117.928 375.01 117.62 375.082 117.228ZM380.238 115.932L379.854 118.104H382.674L382.446 119.4H379.626L379.23 121.668H382.41L382.17 123H377.298L378.786 114.612H383.646L383.418 115.932H380.238ZM389.108 121.404H385.76L384.932 123H383.168L387.668 114.612H389.624L391.148 123H389.372L389.108 121.404ZM388.892 120.096L388.292 116.544L386.444 120.096H388.892ZM396.69 114.624C397.466 114.624 398.134 114.76 398.694 115.032C399.262 115.296 399.694 115.676 399.99 116.172C400.294 116.668 400.446 117.256 400.446 117.936C400.446 118.24 400.418 118.536 400.362 118.824C400.218 119.664 399.906 120.4 399.426 121.032C398.954 121.656 398.354 122.14 397.626 122.484C396.898 122.828 396.09 123 395.202 123H392.274L393.762 114.624H396.69ZM395.394 121.632C396.274 121.632 396.994 121.384 397.554 120.888C398.122 120.392 398.486 119.704 398.646 118.824C398.686 118.56 398.706 118.332 398.706 118.14C398.706 117.468 398.506 116.948 398.106 116.58C397.714 116.212 397.138 116.028 396.378 116.028H395.202L394.218 121.632H395.394ZM404.8 123.084C404.096 123.084 403.472 122.936 402.928 122.64C402.392 122.336 401.976 121.92 401.68 121.392C401.384 120.856 401.236 120.244 401.236 119.556C401.236 118.596 401.448 117.732 401.872 116.964C402.304 116.196 402.896 115.596 403.648 115.164C404.408 114.724 405.26 114.504 406.204 114.504C406.916 114.504 407.54 114.652 408.076 114.948C408.62 115.244 409.04 115.66 409.336 116.196C409.632 116.724 409.78 117.328 409.78 118.008C409.78 118.984 409.568 119.856 409.144 120.624C408.72 121.392 408.128 121.996 407.368 122.436C406.608 122.868 405.752 123.084 404.8 123.084ZM405.04 121.536C405.64 121.536 406.168 121.384 406.624 121.08C407.088 120.776 407.444 120.368 407.692 119.856C407.948 119.336 408.076 118.772 408.076 118.164C408.076 117.508 407.892 116.992 407.524 116.616C407.156 116.24 406.64 116.052 405.976 116.052C405.384 116.052 404.856 116.204 404.392 116.508C403.936 116.812 403.58 117.22 403.324 117.732C403.076 118.244 402.952 118.804 402.952 119.412C402.952 120.068 403.132 120.588 403.492 120.972C403.86 121.348 404.376 121.536 405.04 121.536ZM414.93 114.624C415.786 114.624 416.434 114.82 416.874 115.212C417.314 115.596 417.534 116.1 417.534 116.724C417.534 116.876 417.522 117.032 417.498 117.192C417.402 117.736 417.154 118.232 416.754 118.68C416.362 119.12 415.834 119.428 415.17 119.604L416.574 123H414.618L413.37 119.736H412.566L411.99 123H410.298L411.786 114.624H414.93ZM415.77 117.228C415.786 117.084 415.794 116.988 415.794 116.94C415.794 116.636 415.698 116.4 415.506 116.232C415.314 116.064 415.022 115.98 414.63 115.98H413.226L412.782 118.488H414.186C414.634 118.488 414.99 118.376 415.254 118.152C415.526 117.928 415.698 117.62 415.77 117.228Z" fill="#FFA800"/>
<path d="M-0.224609 103.3C-0.116211 102.487 0.100586 101.764 0.425781 101.132C0.741943 100.5 1.18457 100.003 1.75366 99.6416C2.32275 99.2712 3.04541 99.0906 3.9126 99.0906C4.49976 99.0906 5.02368 99.1628 5.49341 99.3254C5.9541 99.479 6.3606 99.6958 6.71289 99.9849C7.75171 100.879 8.27563 102.171 8.27563 103.878C8.27563 104.086 8.27563 104.52 8.27563 105.179C8.27563 105.838 8.27563 106.498 8.27563 107.175V107.211H12.8103H12.991V109H8.2666L2.20532 108.964C1.97046 108.964 1.7356 108.928 1.5188 108.865C0.687744 108.594 0.136719 108.042 -0.134277 107.202C-0.19751 106.986 -0.224609 106.769 -0.224609 106.534L-0.224609 103.3ZM6.47803 103.417C6.42383 102.894 6.29736 102.451 6.1167 102.072C5.927 101.692 5.66504 101.403 5.30371 101.195C4.95142 100.997 4.49072 100.888 3.9126 100.888C3.36157 100.888 2.91895 100.997 2.60278 101.213C2.27759 101.439 2.04272 101.737 1.88013 102.117C1.72656 102.487 1.61816 102.93 1.56396 103.417V106.534C1.56396 106.715 1.6272 106.859 1.75366 106.986C1.88013 107.112 2.02466 107.175 2.20532 107.175H6.48706C6.48706 106.606 6.49609 106.046 6.49609 105.495C6.49609 104.935 6.49609 104.465 6.48706 104.077C6.48706 103.688 6.48706 103.472 6.47803 103.417ZM7.83301 90.0574C8.51953 89.2083 9.32349 88.5579 10.2358 88.1062C11.1572 87.6636 12.0876 87.4287 13.0271 87.4287V89.2173C12.2683 89.2173 11.5095 89.4341 10.7598 89.8586C10.01 90.2832 9.38672 90.8975 8.87183 91.6924C8.5918 92.0808 8.41113 92.4963 8.3208 92.9299C8.24854 93.4539 8.23047 94.032 8.2666 94.6733C8.27563 94.9714 8.28467 95.2966 8.28467 95.6489L13.0271 95.667V97.4556L2.17822 97.4465C1.34717 97.4465 0.73291 97.2749 0.344482 96.9226C-0.0529785 96.5793 -0.251709 96.0012 -0.251709 95.2063C-0.251709 94.7456 -0.251709 94.2939 -0.251709 93.8423C-0.260742 93.3997 -0.260742 93.0203 -0.260742 92.7222C-0.260742 92.415 -0.260742 92.2705 -0.260742 92.2705C-0.251709 91.3311 -0.0891113 90.509 0.236084 89.7954C0.561279 89.0728 1.04907 88.5127 1.69043 88.0972C2.34082 87.6907 3.14478 87.4829 4.11133 87.4829C4.77075 87.4829 5.33984 87.5913 5.8186 87.7991C6.3064 88.0159 6.71289 88.314 7.04712 88.7024C7.37231 89.0818 7.63428 89.5334 7.83301 90.0574ZM6.49609 92.2253C6.45996 91.6653 6.36963 91.1594 6.2251 90.7168C6.08057 90.2742 5.83667 89.9309 5.51147 89.6689C5.17725 89.416 4.71655 89.2805 4.11133 89.2805C3.5332 89.2805 3.07251 89.3889 2.71118 89.5876C2.35889 89.7954 2.08789 90.0845 1.90723 90.4639C1.71753 90.8433 1.6001 91.2949 1.53687 91.8098C1.53687 91.8459 1.53687 92.0176 1.53687 92.3428C1.53687 92.6589 1.53687 93.0293 1.52783 93.4448C1.52783 93.8604 1.52783 94.2307 1.52783 94.5469C1.52783 94.863 1.52783 95.0256 1.52783 95.0527C1.55493 95.2153 1.6272 95.3508 1.74463 95.4592C1.86206 95.5676 2.00659 95.6218 2.16919 95.6218C2.16919 95.6218 2.38599 95.6218 2.81958 95.6218C3.25317 95.6218 3.74097 95.6218 4.30103 95.6218C4.86108 95.6218 5.35791 95.6309 5.7915 95.6309C6.2251 95.6309 6.45996 95.6309 6.49609 95.6218C6.49609 94.9443 6.49609 94.303 6.49609 93.6887C6.49609 93.2642 6.49609 92.9119 6.49609 92.6409C6.49609 92.3789 6.49609 92.2344 6.49609 92.2253ZM-0.296875 79.1543C-0.296875 77.9348 0.0012207 76.8237 0.597412 75.812C1.1936 74.8093 1.99756 74.0054 3.00024 73.4092C4.01196 72.813 5.12305 72.5149 6.35156 72.5149C7.57104 72.5149 8.68213 72.813 9.69385 73.4092C10.6965 74.0054 11.5005 74.8093 12.0967 75.812C12.6929 76.8237 12.991 77.9348 12.991 79.1543C12.991 80.3828 12.6929 81.4939 12.0967 82.4966C11.5005 83.5083 10.6965 84.3123 9.69385 84.9084C8.68213 85.5046 7.57104 85.8027 6.35156 85.8027C5.12305 85.8027 4.01196 85.5046 3.00024 84.9084C1.99756 84.3123 1.1936 83.5083 0.597412 82.4966C0.0012207 81.4939 -0.296875 80.3828 -0.296875 79.1543ZM11.2024 79.1543C11.2024 78.269 10.9856 77.4561 10.543 76.7153C10.1094 75.9836 9.52222 75.3965 8.79053 74.9629C8.0498 74.5203 7.23682 74.3035 6.35156 74.3035C5.45728 74.3035 4.64429 74.5203 3.90356 74.9629C3.17188 75.3965 2.58472 75.9836 2.15112 76.7153C1.7085 77.4561 1.4917 78.269 1.4917 79.1543C1.4917 80.0486 1.7085 80.8616 2.15112 81.6023C2.58472 82.334 3.17188 82.9211 3.90356 83.3547C4.64429 83.7974 5.45728 84.0142 6.35156 84.0142C7.23682 84.0142 8.0498 83.7974 8.79053 83.3547C9.52222 82.9211 10.1094 82.334 10.543 81.6023C10.9856 80.8616 11.2024 80.0486 11.2024 79.1543ZM-0.206543 68.2061C-0.206543 68.2061 -0.206543 67.9622 -0.206543 67.4744C-0.206543 66.9775 -0.206543 66.4175 -0.215576 65.7852C-0.215576 65.1438 -0.215576 64.5837 -0.215576 64.105C-0.215576 63.6172 -0.215576 63.3552 -0.206543 63.3101H1.573C1.573 63.3462 1.573 63.5991 1.573 64.0869C1.573 64.5747 1.573 65.1348 1.573 65.7671C1.58203 66.4084 1.58203 66.9685 1.58203 67.4653C1.58203 67.9622 1.58203 68.2061 1.58203 68.2061C1.58203 68.45 1.67236 68.6487 1.85303 68.8203C2.03369 68.9829 2.24146 69.0732 2.48535 69.0823C2.93701 69.0823 3.38867 69.0823 3.84937 69.0823C4.31006 69.0823 4.69849 69.0823 5.02368 69.0823C5.33984 69.0823 5.50244 69.0823 5.50244 69.0823V65.1619L7.29102 65.1528L7.30908 69.0823H13V70.8799L2.42212 70.8708C1.69946 70.8708 1.07617 70.6089 0.561279 70.085C0.0463867 69.5701 -0.206543 68.9468 -0.206543 68.2061ZM11.2476 53.509C11.2476 53.491 11.2476 53.4729 11.2385 53.4639H13V61.6841H2.34985C1.6272 61.6841 1.00391 61.4221 0.489014 60.8982C-0.0258789 60.3652 -0.287842 59.7419 -0.287842 59.0103C-0.287842 59.0103 -0.287842 58.7393 -0.287842 58.2153C-0.287842 57.6824 -0.287842 57.0771 -0.287842 56.3906C-0.287842 55.7131 -0.287842 55.1079 -0.287842 54.584C-0.287842 54.0601 -0.287842 53.78 -0.287842 53.7439H1.4917C1.4917 53.771 1.4917 54.051 1.50073 54.575C1.50073 55.0898 1.50073 55.6951 1.50073 56.3816C1.50073 57.0681 1.50073 57.6733 1.50073 58.2063C1.50073 58.7393 1.50977 59.0103 1.50977 59.0103C1.50977 59.2451 1.59106 59.4529 1.75366 59.6245C1.91626 59.7871 2.11499 59.8774 2.34985 59.8774H5.43018V54.1956H7.16455L7.17358 59.8774L11.2024 59.9136L11.2476 53.509ZM3.26221 49.6248C3.63257 49.6248 3.94873 49.4712 4.20166 49.1641C4.46362 48.8479 4.68042 48.4956 4.86108 48.0801C5.05078 47.6736 5.23145 47.1677 5.40308 46.5535C5.57471 45.9482 5.7644 45.343 5.9812 44.7378C6.198 44.1326 6.45093 43.5815 6.75806 43.0847C7.06519 42.5879 7.43555 42.1814 7.88721 41.8833C8.33887 41.5852 8.88086 41.4497 9.53125 41.4678C10.1997 41.4858 10.8049 41.6846 11.3379 42.0549C11.8708 42.4343 12.2864 42.9854 12.5845 43.7261C12.8826 44.4758 13.0181 45.3972 13 46.5173C12.9729 47.3665 12.8555 48.0981 12.6477 48.6943C12.449 49.2996 12.196 49.7964 11.8979 50.2029C11.5999 50.6003 11.2927 50.9165 10.9766 51.1514C10.6604 51.3953 10.3713 51.5669 10.1094 51.6843C9.85645 51.8018 9.66675 51.874 9.54028 51.9102L9.07959 50.1758C9.41382 50.0764 9.72998 49.8867 10.0461 49.6248C10.3533 49.3538 10.6152 48.9563 10.832 48.4143C11.0398 47.8723 11.1663 47.1316 11.1934 46.2012C11.2024 46.0115 11.1753 45.6953 11.103 45.2527C11.0308 44.801 10.8953 44.3765 10.6965 43.979C10.4978 43.5725 10.2178 43.3467 9.83838 43.3015C9.33252 43.2834 8.91699 43.437 8.5918 43.7803C8.27563 44.1145 8.00464 44.5571 7.78784 45.1262C7.57104 45.6863 7.37231 46.3005 7.19165 46.96C7.02002 47.5471 6.83936 48.071 6.64062 48.5317C6.44189 49.0015 6.198 49.4622 5.90894 49.9229C5.61987 50.3926 5.25854 50.7539 4.82495 51.0339C4.39136 51.3049 3.84937 51.4314 3.20801 51.4133C2.53955 51.3953 1.93433 51.1965 1.39233 50.8171C0.841309 50.4377 0.416748 49.9319 0.100586 49.2905C-0.206543 48.6492 -0.351074 47.7639 -0.314941 46.6348C-0.296875 45.9753 -0.143311 45.2617 0.136719 44.5029C0.425781 43.7351 0.832275 43.1299 1.33813 42.6782C1.85303 42.2266 2.46729 41.8833 3.18091 41.6575L3.6416 43.3918C3.28931 43.4912 2.94604 43.6809 2.62085 43.9429C2.28662 44.2139 2.01562 44.6384 1.79883 45.2346C1.58203 45.8308 1.4646 46.418 1.4646 46.9961C1.4646 47.8 1.63623 48.4233 1.97046 48.884C2.30469 49.3447 2.73828 49.5886 3.26221 49.6248ZM3.26221 37.5564C3.63257 37.5564 3.94873 37.4028 4.20166 37.0957C4.46362 36.7795 4.68042 36.4272 4.86108 36.0117C5.05078 35.6052 5.23145 35.0994 5.40308 34.4851C5.57471 33.8799 5.7644 33.2747 5.9812 32.6694C6.198 32.0642 6.45093 31.5132 6.75806 31.0164C7.06519 30.5195 7.43555 30.113 7.88721 29.8149C8.33887 29.5168 8.88086 29.3813 9.53125 29.3994C10.1997 29.4175 10.8049 29.6162 11.3379 29.9866C11.8708 30.366 12.2864 30.917 12.5845 31.6577C12.8826 32.4075 13.0181 33.3289 13 34.449C12.9729 35.2981 12.8555 36.0298 12.6477 36.626C12.449 37.2312 12.196 37.728 11.8979 38.1345C11.5999 38.532 11.2927 38.8481 10.9766 39.083C10.6604 39.3269 10.3713 39.4985 10.1094 39.616C9.85645 39.7334 9.66675 39.8057 9.54028 39.8418L9.07959 38.1074C9.41382 38.0081 9.72998 37.8184 10.0461 37.5564C10.3533 37.2854 10.6152 36.8879 10.832 36.3459C11.0398 35.804 11.1663 35.0632 11.1934 34.1328C11.2024 33.9431 11.1753 33.627 11.103 33.1843C11.0308 32.7327 10.8953 32.3081 10.6965 31.9106C10.4978 31.5042 10.2178 31.2783 9.83838 31.2332C9.33252 31.2151 8.91699 31.3687 8.5918 31.7119C8.27563 32.0461 8.00464 32.4888 7.78784 33.0579C7.57104 33.6179 7.37231 34.2322 7.19165 34.8916C7.02002 35.4788 6.83936 36.0027 6.64062 36.4634C6.44189 36.9331 6.198 37.3938 5.90894 37.8545C5.61987 38.3242 5.25854 38.6855 4.82495 38.9656C4.39136 39.2366 3.84937 39.363 3.20801 39.345C2.53955 39.3269 1.93433 39.1282 1.39233 38.7488C0.841309 38.3694 0.416748 37.8635 0.100586 37.2222C-0.206543 36.5808 -0.351074 35.6956 -0.314941 34.5664C-0.296875 33.907 -0.143311 33.1934 0.136719 32.4346C0.425781 31.6667 0.832275 31.0615 1.33813 30.6099C1.85303 30.1582 2.46729 29.8149 3.18091 29.5891L3.6416 31.3235C3.28931 31.4229 2.94604 31.6125 2.62085 31.8745C2.28662 32.1455 2.01562 32.5701 1.79883 33.1663C1.58203 33.7625 1.4646 34.3496 1.4646 34.9277C1.4646 35.7317 1.63623 36.355 1.97046 36.8157C2.30469 37.2764 2.73828 37.5203 3.26221 37.5564ZM-0.296875 21.0347C-0.296875 19.8152 0.0012207 18.7041 0.597412 17.6924C1.1936 16.6897 1.99756 15.8857 3.00024 15.2896C4.01196 14.6934 5.12305 14.3953 6.35156 14.3953C7.57104 14.3953 8.68213 14.6934 9.69385 15.2896C10.6965 15.8857 11.5005 16.6897 12.0967 17.6924C12.6929 18.7041 12.991 19.8152 12.991 21.0347C12.991 22.2632 12.6929 23.3743 12.0967 24.377C11.5005 25.3887 10.6965 26.1926 9.69385 26.7888C8.68213 27.385 7.57104 27.6831 6.35156 27.6831C5.12305 27.6831 4.01196 27.385 3.00024 26.7888C1.99756 26.1926 1.1936 25.3887 0.597412 24.377C0.0012207 23.3743 -0.296875 22.2632 -0.296875 21.0347ZM11.2024 21.0347C11.2024 20.1494 10.9856 19.3364 10.543 18.5957C10.1094 17.864 9.52222 17.2769 8.79053 16.8433C8.0498 16.4006 7.23682 16.1838 6.35156 16.1838C5.45728 16.1838 4.64429 16.4006 3.90356 16.8433C3.17187 17.2769 2.58472 17.864 2.15112 18.5957C1.7085 19.3364 1.4917 20.1494 1.4917 21.0347C1.4917 21.929 1.7085 22.7419 2.15112 23.4827C2.58472 24.2144 3.17187 24.8015 3.90356 25.2351C4.64429 25.6777 5.45728 25.8945 6.35156 25.8945C7.23682 25.8945 8.0498 25.6777 8.79053 25.2351C9.52222 24.8015 10.1094 24.2144 10.543 23.4827C10.9856 22.7419 11.2024 21.929 11.2024 21.0347ZM7.83301 5.36206C8.51953 4.51294 9.32349 3.86255 10.2358 3.41089C11.1572 2.96826 12.0876 2.7334 13.0271 2.7334V4.52197C12.2683 4.52197 11.5095 4.73877 10.7598 5.16333C10.01 5.58789 9.38672 6.20215 8.87183 6.99707C8.5918 7.3855 8.41113 7.80103 8.3208 8.23462C8.24854 8.75854 8.23047 9.33667 8.2666 9.97803C8.27563 10.2761 8.28467 10.6013 8.28467 10.9536L13.0271 10.9717V12.7603L2.17822 12.7512C1.34717 12.7512 0.73291 12.5796 0.344482 12.2273C-0.0529785 11.884 -0.251709 11.3059 -0.251709 10.511C-0.251709 10.0503 -0.251709 9.59863 -0.251709 9.14697C-0.260742 8.70435 -0.260742 8.32495 -0.260742 8.02686C-0.260742 7.71973 -0.260742 7.5752 -0.260742 7.5752C-0.251709 6.63574 -0.0891113 5.81372 0.236084 5.1001C0.561279 4.37744 1.04907 3.81738 1.69043 3.40186C2.34082 2.99536 3.14478 2.7876 4.11133 2.7876C4.77075 2.7876 5.33984 2.896 5.8186 3.10376C6.3064 3.32056 6.71289 3.61865 7.04712 4.00708C7.37231 4.38647 7.63428 4.83813 7.83301 5.36206ZM6.49609 7.53003C6.45996 6.96997 6.36963 6.46411 6.2251 6.02148C6.08057 5.57886 5.83667 5.2356 5.51147 4.97363C5.17725 4.7207 4.71655 4.58521 4.11133 4.58521C3.5332 4.58521 3.07251 4.6936 2.71118 4.89233C2.35889 5.1001 2.08789 5.38916 1.90723 5.76855C1.71753 6.14795 1.6001 6.59961 1.53687 7.1145C1.53687 7.15063 1.53687 7.32227 1.53687 7.64746C1.53687 7.96362 1.53687 8.33398 1.52783 8.74951C1.52783 9.16504 1.52783 9.5354 1.52783 9.85156C1.52783 10.1677 1.52783 10.3303 1.52783 10.3574C1.55493 10.52 1.6272 10.6555 1.74463 10.7639C1.86206 10.8723 2.00659 10.9265 2.16919 10.9265C2.16919 10.9265 2.38599 10.9265 2.81958 10.9265C3.25317 10.9265 3.74097 10.9265 4.30103 10.9265C4.86108 10.9265 5.35791 10.9355 5.7915 10.9355C6.2251 10.9355 6.45996 10.9355 6.49609 10.9265C6.49609 10.249 6.49609 9.60767 6.49609 8.99341C6.49609 8.56885 6.49609 8.21655 6.49609 7.94556C6.49609 7.68359 6.49609 7.53906 6.49609 7.53003Z" fill="#1E1E1E"/>
</svg>
